<?xml version="1.0" standalone="no"?><!DOCTYPE svg PUBLIC "-//W3C//DTD SVG 1.1//EN" "http://www.w3.org/Graphics/SVG/1.1/DTD/svg11.dtd"><svg t="1620788824746" class="icon" viewBox="0 0 1088 1024" version="1.1" xmlns="http://www.w3.org/2000/svg" p-id="1423" xmlns:xlink="http://www.w3.org/1999/xlink" width="212.5" height="200"><defs><style type="text/css"></style></defs><path d="M752.918792 689.169687m-334.830314 0a334.830313 334.830313 0 1 0 669.660627 0 334.830313 334.830313 0 1 0-669.660627 0Z" fill="#5CF1E7" p-id="1424"></path><path d="M875.641591 136.917092a437.260366 437.260366 0 0 1-33.821244 81.170985 96.632125 96.632125 0 0 0 0 91.800519A386.5285 386.5285 0 0 1 314.692105 833.634714a96.632125 96.632125 0 0 0-48.316063-13.045337 96.632125 96.632125 0 0 0-43.001296 10.146373 362.85363 362.85363 0 0 1-70.05829 28.506477 357.055702 357.055702 0 0 1 26.573834-67.159327A1484.752602 1484.752602 0 0 1 452.876043 435.993519a1524.371773 1524.371773 0 0 1 344.976687-267.187826 427.113993 427.113993 0 0 1 77.788861-32.371762m28.506477-101.463731a361.404148 361.404148 0 0 0-150.746115 48.316062 1602.643795 1602.643795 0 0 0-369.134718 285.064769 1591.5311 1591.5311 0 0 0-289.896376 380.730573c-44.450778 89.867876-55.563472 160.892488-23.19171 193.26425a73.440415 73.440415 0 0 0 54.11399 18.360104 342.077723 342.077723 0 0 0 144.948188-43.484456A483.160625 483.160625 0 0 0 927.822938 262.538854c48.316063-96.632125 64.743524-174.420986 30.43912-208.242229a71.990933 71.990933 0 0 0-54.11399-18.843265z" fill="#1F56F5" p-id="1425"></path><path d="M64.898061 635.538857a48.316063 48.316063 0 0 1-48.316062-35.753886A475.430055 475.430055 0 0 1 745.671383 84.252584a48.316063 48.316063 0 1 1-54.597151 79.721503 378.79793 378.79793 0 0 0-579.792751 410.686531 48.316063 48.316063 0 0 1-33.821243 58.945597 39.619171 39.619171 0 0 1-12.562177 1.932642z" fill="#1F56F5" p-id="1426"></path><path d="M559.171381 589.155437a48.316063 48.316063 0 1 1-48.316062 48.316063 48.316063 48.316063 0 0 1 48.316062-48.316063m0-96.632125a144.948188 144.948188 0 1 0 144.948188 144.948188 144.948188 144.948188 0 0 0-144.948188-144.948188z" fill="#A8B9E9" p-id="1427"></path></svg>