<?xml version="1.0" standalone="no"?><!DOCTYPE svg PUBLIC "-//W3C//DTD SVG 1.1//EN" "http://www.w3.org/Graphics/SVG/1.1/DTD/svg11.dtd"><svg t="1620788637600" class="icon" viewBox="0 0 1071 1024" version="1.1" xmlns="http://www.w3.org/2000/svg" p-id="894" xmlns:xlink="http://www.w3.org/1999/xlink" width="209.1796875" height="200"><defs><style type="text/css"></style></defs><path d="M759.589829 712.750523m-311.249477 0a311.249477 311.249477 0 1 0 622.498954 0 311.249477 311.249477 0 1 0-622.498954 0Z" fill="#5CF1E7" p-id="895"></path><path d="M681.44061 709.606589H388.605604a44.913344 44.913344 0 0 0 0 89.826689h292.835006a44.913344 44.913344 0 0 0 0-89.826689z" fill="#A8B9E9" p-id="896"></path><path d="M760.488096 1024h-449.133445a144.620969 144.620969 0 0 1-144.620969-144.620969v-314.393411H113.735936A110.935961 110.935961 0 0 1 42.323718 366.917771L439.806816 35.008155a148.214037 148.214037 0 0 1 191.330848 0l194.474781 162.586307A44.913344 44.913344 0 1 1 765.877697 266.311879L572.750316 103.725572a59.734748 59.734748 0 0 0-76.352686 0L99.812799 436.084321a20.211005 20.211005 0 0 0-6.287868 23.354939 21.109272 21.109272 0 0 0 20.211005 13.923137h96.114557a44.913344 44.913344 0 0 1 44.913344 44.913345v359.306755a54.79428 54.79428 0 0 0 54.794281 54.79428h449.133444a54.79428 54.79428 0 0 0 54.79428-54.79428v-359.306755a44.913344 44.913344 0 0 1 44.913345-44.913345h96.56369a20.211005 20.211005 0 0 0 19.761872-13.923137 20.211005 20.211005 0 0 0-6.287869-23.354939l-37.278075-31.439341a44.913344 44.913344 0 0 1-5.389602-63.327815A44.913344 44.913344 0 0 1 990.444419 334.580163l39.07461 32.337608a110.935961 110.935961 0 0 1-70.963084 196.271315H905.109065v314.393411a144.620969 144.620969 0 0 1-144.620969 146.417503z" fill="#1F56F5" p-id="897"></path></svg>