<?xml version="1.0" standalone="no"?><!DOCTYPE svg PUBLIC "-//W3C//DTD SVG 1.1//EN" "http://www.w3.org/Graphics/SVG/1.1/DTD/svg11.dtd"><svg t="1620783848079" class="icon" viewBox="0 0 1024 1024" version="1.1" xmlns="http://www.w3.org/2000/svg" p-id="1156" xmlns:xlink="http://www.w3.org/1999/xlink" width="200" height="200"><defs><style type="text/css"></style></defs><path d="M335.0528 159.0272s218.5216-110.0288 444.672 11.6736V634.88s-256.6144-83.6608-444.672 11.776V159.0272z" fill="#CAE2FF" p-id="1157"></path><path d="M927.6416 183.9616a30.71488 30.71488 0 0 0-33.8432 8.192c-27.136 30.2592-63.1808 22.4768-83.3536 14.4896v-35.8912c0-11.3152-6.1952-21.7088-16.1792-27.0336-178.1248-95.8464-349.7984-57.3952-428.4928-30.1568V97.28c0-16.9472-13.7728-30.72-30.72-30.72H231.2192c-16.9472 0-30.72 13.7728-30.72 30.72v686.0288H113.3568c-16.9472 0-30.72 13.7728-30.72 30.72v107.8272c0 16.9472 13.7728 30.72 30.72 30.72h339.5584c16.9472 0 30.72-13.7728 30.72-30.72v-107.8272c0-16.9472-13.7728-30.72-30.72-30.72H365.7728V666.112c78.2848-34.2528 168.192-38.0416 243.3536-31.8464v53.8112c0 12.288 7.3216 23.3472 18.5856 28.2112 55.7056 24.0128 103.7824 32.8192 144.3328 32.8192 110.2848 0 165.3248-65.28 168.3968-69.0688a30.7968 30.7968 0 0 0 6.912-19.4048v-448a30.64832 30.64832 0 0 0-19.712-28.672zM422.1952 891.0848H144.0768v-46.3872h278.1696v46.3872z m-160.256-107.776V128h42.4448v655.2576h-42.4448z m103.8336-183.3472V179.2512c51.8656-20.48 214.8352-71.7824 383.232 10.24v405.0944c-74.5472-18.2272-238.7968-47.1552-383.232 5.376z m520.192 48.0768c-20.992 18.7392-90.2144 66.048-215.3472 19.2512v-25.6c53.0944 8.4992 90.8288 19.6608 98.2528 21.9648 0.8192 0.256 1.3312 0.4096 1.3824 0.4096 4.1472 1.3824 8.4992 1.7408 12.7488 1.28 5.2736-0.5632 10.3936-2.4064 14.7968-5.632 1.5872-1.1776 3.072-2.5088 4.4032-3.9424 0.3072-0.3584 0.6656-0.6656 0.9728-0.9728a30.52544 30.52544 0 0 0 7.3216-19.9168V270.7456c22.9376 5.4272 49.5616 6.6048 75.52-1.8944v379.1872z" fill="#5866D2" p-id="1158"></path></svg>