<?xml version="1.0" standalone="no"?><!DOCTYPE svg PUBLIC "-//W3C//DTD SVG 1.1//EN" "http://www.w3.org/Graphics/SVG/1.1/DTD/svg11.dtd"><svg t="1620788940221" class="icon" viewBox="0 0 1024 1024" version="1.1" xmlns="http://www.w3.org/2000/svg" p-id="1569" xmlns:xlink="http://www.w3.org/1999/xlink" width="200" height="200"><defs><style type="text/css"></style></defs><path d="M673.771755 713.952626m-292.330381 0a292.330381 292.330381 0 1 0 584.660762 0 292.330381 292.330381 0 1 0-584.660762 0Z" fill="#5CF1E7" p-id="1570"></path><path d="M615.558779 939.633368H309.307904a42.183316 42.183316 0 0 0-42.183317 42.183316 42.183316 42.183316 0 0 0 42.183317 42.183316h304.985376a42.183316 42.183316 0 0 0 42.183316-42.183316 42.183316 42.183316 0 0 0-42.183316-42.183316zM551.440138 170.631514a42.183316 42.183316 0 0 1-42.183316-42.183316 42.183316 42.183316 0 0 0-88.163131 0 42.183316 42.183316 0 1 1-84.366632 0 126.549949 126.549949 0 0 1 256.896396 0 42.183316 42.183316 0 0 1-42.183317 42.183316z" fill="#A8B9E9" p-id="1571"></path><path d="M762.778552 863.703399H163.35363A106.72379 106.72379 0 0 1 66.753836 803.381256a102.505458 102.505458 0 0 1 10.967662-107.989289L124.544979 634.647992v-194.886921a332.826365 332.826365 0 0 1 337.466529-325.655201 332.826365 332.826365 0 0 1 337.466529 325.655201v49.35448a42.183316 42.183316 0 0 1-84.366632 0v-49.35448a248.459732 248.459732 0 0 0-253.099897-241.288568 248.037899 248.037899 0 0 0-253.099897 241.288568v210.916581a42.183316 42.183316 0 0 1-8.858496 25.731823l-55.681978 71.711637a17.716993 17.716993 0 0 0 0 18.982493 22.778991 22.778991 0 0 0 21.091658 12.233161h597.315757a21.513491 21.513491 0 0 0 20.669825-12.233161 16.451493 16.451493 0 0 0 0-18.982493L726.079067 676.831308a42.183316 42.183316 0 1 1 66.64964-51.463646l55.681977 71.711638A102.505458 102.505458 0 0 1 857.691014 803.381256a107.145623 107.145623 0 0 1-94.912462 60.322143z" fill="#1F56F5" p-id="1572"></path></svg>