<?xml version="1.0" standalone="no"?><!DOCTYPE svg PUBLIC "-//W3C//DTD SVG 1.1//EN" "http://www.w3.org/Graphics/SVG/1.1/DTD/svg11.dtd"><svg t="1620788810902" class="icon" viewBox="0 0 1024 1024" version="1.1" xmlns="http://www.w3.org/2000/svg" p-id="1275" xmlns:xlink="http://www.w3.org/1999/xlink" width="200" height="200"><defs><style type="text/css"></style></defs><path d="M690.525807 715.467299m-308.532701 0a308.532701 308.532701 0 1 0 617.065402 0 308.532701 308.532701 0 1 0-617.065402 0Z" fill="#5CF1E7" p-id="1276"></path><path d="M470.145307 578.786867a44.521313 44.521313 0 0 0-44.521314 44.521314v89.042626a44.521313 44.521313 0 0 0 89.042627 0v-89.042626a44.521313 44.521313 0 0 0-44.521313-44.521314z" fill="#A8B9E9" p-id="1277"></path><path d="M470.145307 89.052421a162.502793 162.502793 0 1 1-164.728859 162.502794A162.948007 162.948007 0 0 1 470.145307 89.052421m0-89.042626a251.54542 251.54542 0 1 0 249.319354 251.54542A251.54542 251.54542 0 0 0 470.145307 0.009795z" fill="#1F56F5" p-id="1278"></path><path d="M772.890237 1024H162.503032A138.016071 138.016071 0 0 1 24.932174 886.429142v-26.267575a442.987067 442.987067 0 0 1 862.377838-142.468202 44.521313 44.521313 0 0 1-27.603214 56.096854 44.521313 44.521313 0 0 1-56.542068-27.603214A356.170506 356.170506 0 0 0 113.9748 860.161567v26.267575A48.528231 48.528231 0 0 0 162.503032 934.957373H772.890237a48.528231 48.528231 0 0 0 48.973445-48.528231 44.521313 44.521313 0 0 1 89.042626 0A138.016071 138.016071 0 0 1 772.890237 1024z" fill="#1F56F5" p-id="1279"></path></svg>